G75*
G70*
%OFA0B0*%
%FSLAX24Y24*%
%IPPOS*%
%LPD*%
%AMOC8*
5,1,8,0,0,1.08239X$1,22.5*
%
%ADD10C,0.1340*%
%ADD11R,0.0395X0.1497*%
%ADD12R,0.0356X0.1104*%
%ADD13R,0.0474X0.0513*%
%ADD14R,0.0513X0.0474*%
%ADD15R,0.0820X0.0820*%
%ADD16C,0.0820*%
%ADD17C,0.0474*%
D10*
X001180Y001180D03*
X001180Y007180D03*
X013680Y007180D03*
X013680Y001180D03*
D11*
X005284Y003176D03*
D12*
X006406Y002979D03*
X006918Y002979D03*
X007430Y002979D03*
X007942Y002979D03*
X008454Y002979D03*
X009576Y002979D03*
X009576Y005381D03*
X008454Y005381D03*
X007942Y005381D03*
X007430Y005381D03*
X006918Y005381D03*
X006406Y005381D03*
X005284Y005381D03*
D13*
X005680Y006845D03*
X004680Y006845D03*
X004680Y007515D03*
X005680Y007515D03*
X007680Y007515D03*
X008680Y007515D03*
X008680Y006845D03*
X007680Y006845D03*
X007180Y001515D03*
X006180Y001515D03*
X006180Y000845D03*
X007180Y000845D03*
X008180Y000845D03*
X008180Y001515D03*
X011680Y001515D03*
X011680Y000845D03*
X004680Y000845D03*
X004680Y001515D03*
D14*
X009345Y001430D03*
X010015Y001430D03*
D15*
X012230Y005680D03*
X002630Y002680D03*
D16*
X002730Y003680D03*
X002630Y004680D03*
X002730Y005680D03*
X012130Y004680D03*
X012230Y003680D03*
X012130Y002680D03*
D17*
X013980Y005980D03*
X000880Y005980D03*
X000880Y002480D03*
M02*
