G75*
G70*
%OFA0B0*%
%FSLAX24Y24*%
%IPPOS*%
%LPD*%
%AMOC8*
5,1,8,0,0,1.08239X$1,22.5*
%
%ADD10C,0.0000*%
%ADD11C,0.0060*%
%ADD12C,0.0040*%
%ADD13C,0.0220*%
%ADD14C,0.0010*%
%ADD15R,0.0300X0.0180*%
%ADD16R,0.0180X0.0300*%
%ADD17C,0.0050*%
D10*
X000180Y000180D02*
X000180Y008050D01*
X014672Y008050D01*
X014672Y000180D01*
X000180Y000180D01*
X000550Y001180D02*
X000552Y001230D01*
X000558Y001280D01*
X000568Y001329D01*
X000582Y001377D01*
X000599Y001424D01*
X000620Y001469D01*
X000645Y001513D01*
X000673Y001554D01*
X000705Y001593D01*
X000739Y001630D01*
X000776Y001664D01*
X000816Y001694D01*
X000858Y001721D01*
X000902Y001745D01*
X000948Y001766D01*
X000995Y001782D01*
X001043Y001795D01*
X001093Y001804D01*
X001142Y001809D01*
X001193Y001810D01*
X001243Y001807D01*
X001292Y001800D01*
X001341Y001789D01*
X001389Y001774D01*
X001435Y001756D01*
X001480Y001734D01*
X001523Y001708D01*
X001564Y001679D01*
X001603Y001647D01*
X001639Y001612D01*
X001671Y001574D01*
X001701Y001534D01*
X001728Y001491D01*
X001751Y001447D01*
X001770Y001401D01*
X001786Y001353D01*
X001798Y001304D01*
X001806Y001255D01*
X001810Y001205D01*
X001810Y001155D01*
X001806Y001105D01*
X001798Y001056D01*
X001786Y001007D01*
X001770Y000959D01*
X001751Y000913D01*
X001728Y000869D01*
X001701Y000826D01*
X001671Y000786D01*
X001639Y000748D01*
X001603Y000713D01*
X001564Y000681D01*
X001523Y000652D01*
X001480Y000626D01*
X001435Y000604D01*
X001389Y000586D01*
X001341Y000571D01*
X001292Y000560D01*
X001243Y000553D01*
X001193Y000550D01*
X001142Y000551D01*
X001093Y000556D01*
X001043Y000565D01*
X000995Y000578D01*
X000948Y000594D01*
X000902Y000615D01*
X000858Y000639D01*
X000816Y000666D01*
X000776Y000696D01*
X000739Y000730D01*
X000705Y000767D01*
X000673Y000806D01*
X000645Y000847D01*
X000620Y000891D01*
X000599Y000936D01*
X000582Y000983D01*
X000568Y001031D01*
X000558Y001080D01*
X000552Y001130D01*
X000550Y001180D01*
X000550Y007180D02*
X000552Y007230D01*
X000558Y007280D01*
X000568Y007329D01*
X000582Y007377D01*
X000599Y007424D01*
X000620Y007469D01*
X000645Y007513D01*
X000673Y007554D01*
X000705Y007593D01*
X000739Y007630D01*
X000776Y007664D01*
X000816Y007694D01*
X000858Y007721D01*
X000902Y007745D01*
X000948Y007766D01*
X000995Y007782D01*
X001043Y007795D01*
X001093Y007804D01*
X001142Y007809D01*
X001193Y007810D01*
X001243Y007807D01*
X001292Y007800D01*
X001341Y007789D01*
X001389Y007774D01*
X001435Y007756D01*
X001480Y007734D01*
X001523Y007708D01*
X001564Y007679D01*
X001603Y007647D01*
X001639Y007612D01*
X001671Y007574D01*
X001701Y007534D01*
X001728Y007491D01*
X001751Y007447D01*
X001770Y007401D01*
X001786Y007353D01*
X001798Y007304D01*
X001806Y007255D01*
X001810Y007205D01*
X001810Y007155D01*
X001806Y007105D01*
X001798Y007056D01*
X001786Y007007D01*
X001770Y006959D01*
X001751Y006913D01*
X001728Y006869D01*
X001701Y006826D01*
X001671Y006786D01*
X001639Y006748D01*
X001603Y006713D01*
X001564Y006681D01*
X001523Y006652D01*
X001480Y006626D01*
X001435Y006604D01*
X001389Y006586D01*
X001341Y006571D01*
X001292Y006560D01*
X001243Y006553D01*
X001193Y006550D01*
X001142Y006551D01*
X001093Y006556D01*
X001043Y006565D01*
X000995Y006578D01*
X000948Y006594D01*
X000902Y006615D01*
X000858Y006639D01*
X000816Y006666D01*
X000776Y006696D01*
X000739Y006730D01*
X000705Y006767D01*
X000673Y006806D01*
X000645Y006847D01*
X000620Y006891D01*
X000599Y006936D01*
X000582Y006983D01*
X000568Y007031D01*
X000558Y007080D01*
X000552Y007130D01*
X000550Y007180D01*
X013050Y007180D02*
X013052Y007230D01*
X013058Y007280D01*
X013068Y007329D01*
X013082Y007377D01*
X013099Y007424D01*
X013120Y007469D01*
X013145Y007513D01*
X013173Y007554D01*
X013205Y007593D01*
X013239Y007630D01*
X013276Y007664D01*
X013316Y007694D01*
X013358Y007721D01*
X013402Y007745D01*
X013448Y007766D01*
X013495Y007782D01*
X013543Y007795D01*
X013593Y007804D01*
X013642Y007809D01*
X013693Y007810D01*
X013743Y007807D01*
X013792Y007800D01*
X013841Y007789D01*
X013889Y007774D01*
X013935Y007756D01*
X013980Y007734D01*
X014023Y007708D01*
X014064Y007679D01*
X014103Y007647D01*
X014139Y007612D01*
X014171Y007574D01*
X014201Y007534D01*
X014228Y007491D01*
X014251Y007447D01*
X014270Y007401D01*
X014286Y007353D01*
X014298Y007304D01*
X014306Y007255D01*
X014310Y007205D01*
X014310Y007155D01*
X014306Y007105D01*
X014298Y007056D01*
X014286Y007007D01*
X014270Y006959D01*
X014251Y006913D01*
X014228Y006869D01*
X014201Y006826D01*
X014171Y006786D01*
X014139Y006748D01*
X014103Y006713D01*
X014064Y006681D01*
X014023Y006652D01*
X013980Y006626D01*
X013935Y006604D01*
X013889Y006586D01*
X013841Y006571D01*
X013792Y006560D01*
X013743Y006553D01*
X013693Y006550D01*
X013642Y006551D01*
X013593Y006556D01*
X013543Y006565D01*
X013495Y006578D01*
X013448Y006594D01*
X013402Y006615D01*
X013358Y006639D01*
X013316Y006666D01*
X013276Y006696D01*
X013239Y006730D01*
X013205Y006767D01*
X013173Y006806D01*
X013145Y006847D01*
X013120Y006891D01*
X013099Y006936D01*
X013082Y006983D01*
X013068Y007031D01*
X013058Y007080D01*
X013052Y007130D01*
X013050Y007180D01*
X013050Y001180D02*
X013052Y001230D01*
X013058Y001280D01*
X013068Y001329D01*
X013082Y001377D01*
X013099Y001424D01*
X013120Y001469D01*
X013145Y001513D01*
X013173Y001554D01*
X013205Y001593D01*
X013239Y001630D01*
X013276Y001664D01*
X013316Y001694D01*
X013358Y001721D01*
X013402Y001745D01*
X013448Y001766D01*
X013495Y001782D01*
X013543Y001795D01*
X013593Y001804D01*
X013642Y001809D01*
X013693Y001810D01*
X013743Y001807D01*
X013792Y001800D01*
X013841Y001789D01*
X013889Y001774D01*
X013935Y001756D01*
X013980Y001734D01*
X014023Y001708D01*
X014064Y001679D01*
X014103Y001647D01*
X014139Y001612D01*
X014171Y001574D01*
X014201Y001534D01*
X014228Y001491D01*
X014251Y001447D01*
X014270Y001401D01*
X014286Y001353D01*
X014298Y001304D01*
X014306Y001255D01*
X014310Y001205D01*
X014310Y001155D01*
X014306Y001105D01*
X014298Y001056D01*
X014286Y001007D01*
X014270Y000959D01*
X014251Y000913D01*
X014228Y000869D01*
X014201Y000826D01*
X014171Y000786D01*
X014139Y000748D01*
X014103Y000713D01*
X014064Y000681D01*
X014023Y000652D01*
X013980Y000626D01*
X013935Y000604D01*
X013889Y000586D01*
X013841Y000571D01*
X013792Y000560D01*
X013743Y000553D01*
X013693Y000550D01*
X013642Y000551D01*
X013593Y000556D01*
X013543Y000565D01*
X013495Y000578D01*
X013448Y000594D01*
X013402Y000615D01*
X013358Y000639D01*
X013316Y000666D01*
X013276Y000696D01*
X013239Y000730D01*
X013205Y000767D01*
X013173Y000806D01*
X013145Y000847D01*
X013120Y000891D01*
X013099Y000936D01*
X013082Y000983D01*
X013068Y001031D01*
X013058Y001080D01*
X013052Y001130D01*
X013050Y001180D01*
D11*
X012274Y006710D02*
X012161Y006710D01*
X012104Y006767D01*
X012331Y006994D01*
X012331Y006767D01*
X012274Y006710D01*
X012104Y006767D02*
X012104Y006994D01*
X012161Y007050D01*
X012274Y007050D01*
X012331Y006994D01*
X011977Y006767D02*
X011977Y006710D01*
X011920Y006710D01*
X011920Y006767D01*
X011977Y006767D01*
X011778Y006767D02*
X011722Y006710D01*
X011608Y006710D01*
X011552Y006767D01*
X011778Y006994D01*
X011778Y006767D01*
X011552Y006767D02*
X011552Y006994D01*
X011608Y007050D01*
X011722Y007050D01*
X011778Y006994D01*
X011424Y006767D02*
X011424Y006710D01*
X011367Y006710D01*
X011367Y006767D01*
X011424Y006767D01*
X011169Y006710D02*
X011169Y007050D01*
X010999Y006880D01*
X011226Y006880D01*
X010872Y006767D02*
X010872Y006710D01*
X010815Y006710D01*
X010815Y006767D01*
X010872Y006767D01*
X010673Y006937D02*
X010560Y006710D01*
X010447Y006937D01*
X010305Y006880D02*
X010305Y006823D01*
X010078Y006823D01*
X010078Y006767D02*
X010078Y006880D01*
X010135Y006937D01*
X010248Y006937D01*
X010305Y006880D01*
X010248Y006710D02*
X010135Y006710D01*
X010078Y006767D01*
X009937Y006710D02*
X009823Y006823D01*
X009880Y006823D02*
X009710Y006823D01*
X009710Y006710D02*
X009710Y007050D01*
X009880Y007050D01*
X009937Y006994D01*
X009937Y006880D01*
X009880Y006823D01*
X009880Y007210D02*
X009767Y007210D01*
X009710Y007267D01*
X009710Y007494D01*
X009767Y007550D01*
X009880Y007550D01*
X009937Y007494D01*
X010135Y007437D02*
X010248Y007437D01*
X010305Y007380D01*
X010305Y007210D01*
X010135Y007210D01*
X010078Y007267D01*
X010135Y007323D01*
X010305Y007323D01*
X010447Y007210D02*
X010560Y007210D01*
X010503Y007210D02*
X010503Y007550D01*
X010447Y007550D01*
X010692Y007380D02*
X010749Y007437D01*
X010919Y007437D01*
X011060Y007437D02*
X011117Y007437D01*
X011117Y007210D01*
X011060Y007210D02*
X011174Y007210D01*
X010919Y007210D02*
X010749Y007210D01*
X010692Y007267D01*
X010692Y007380D01*
X010919Y007550D02*
X010919Y007210D01*
X011117Y007550D02*
X011117Y007607D01*
X009937Y007267D02*
X009880Y007210D01*
D12*
X006883Y004660D02*
X006883Y004200D01*
X007036Y004200D02*
X006729Y004200D01*
X006576Y004277D02*
X006576Y004660D01*
X006729Y004507D02*
X006883Y004660D01*
X006576Y004277D02*
X006499Y004200D01*
X006346Y004200D01*
X006269Y004277D01*
X006269Y004660D01*
D13*
X005692Y007180D02*
X005668Y007180D01*
X004692Y007180D02*
X004668Y007180D01*
X008668Y007180D02*
X008692Y007180D01*
X011668Y001180D02*
X011692Y001180D01*
D14*
X011375Y001057D02*
X011375Y001007D01*
X011350Y000982D01*
X011350Y000935D02*
X011375Y000910D01*
X011375Y000860D01*
X011350Y000835D01*
X011250Y000835D01*
X011225Y000860D01*
X011225Y000910D01*
X011250Y000935D01*
X011250Y000982D02*
X011225Y001007D01*
X011225Y001057D01*
X011250Y001082D01*
X011275Y001082D01*
X011300Y001057D01*
X011325Y001082D01*
X011350Y001082D01*
X011375Y001057D01*
X011300Y001057D02*
X011300Y001032D01*
X009988Y001000D02*
X009988Y001025D01*
X009963Y001050D01*
X009888Y001050D01*
X009888Y001000D01*
X009913Y000975D01*
X009963Y000975D01*
X009988Y001000D01*
X009938Y001100D02*
X009888Y001050D01*
X009840Y001050D02*
X009815Y001025D01*
X009740Y001025D01*
X009740Y000975D02*
X009740Y001125D01*
X009815Y001125D01*
X009840Y001100D01*
X009840Y001050D01*
X009790Y001025D02*
X009840Y000975D01*
X009938Y001100D02*
X009988Y001125D01*
X008635Y001240D02*
X008485Y001240D01*
X008485Y001315D01*
X008510Y001340D01*
X008560Y001340D01*
X008585Y001315D01*
X008585Y001240D01*
X008585Y001290D02*
X008635Y001340D01*
X008610Y001388D02*
X008635Y001413D01*
X008635Y001463D01*
X008610Y001488D01*
X008560Y001488D01*
X008535Y001463D01*
X008535Y001438D01*
X008560Y001388D01*
X008485Y001388D01*
X008485Y001488D01*
X007635Y001488D02*
X007635Y001388D01*
X007535Y001488D01*
X007510Y001488D01*
X007485Y001463D01*
X007485Y001413D01*
X007510Y001388D01*
X007510Y001340D02*
X007560Y001340D01*
X007585Y001315D01*
X007585Y001240D01*
X007635Y001240D02*
X007485Y001240D01*
X007485Y001315D01*
X007510Y001340D01*
X007585Y001290D02*
X007635Y001340D01*
X006635Y001340D02*
X006585Y001290D01*
X006585Y001315D02*
X006585Y001240D01*
X006635Y001240D02*
X006485Y001240D01*
X006485Y001315D01*
X006510Y001340D01*
X006560Y001340D01*
X006585Y001315D01*
X006610Y001388D02*
X006635Y001413D01*
X006635Y001463D01*
X006610Y001488D01*
X006585Y001488D01*
X006560Y001463D01*
X006560Y001438D01*
X006560Y001463D02*
X006535Y001488D01*
X006510Y001488D01*
X006485Y001463D01*
X006485Y001413D01*
X006510Y001388D01*
X005135Y001340D02*
X005085Y001290D01*
X005085Y001315D02*
X005085Y001240D01*
X005135Y001240D02*
X004985Y001240D01*
X004985Y001315D01*
X005010Y001340D01*
X005060Y001340D01*
X005085Y001315D01*
X005060Y001388D02*
X005060Y001488D01*
X005135Y001463D02*
X004985Y001463D01*
X005060Y001388D01*
X005250Y006835D02*
X005350Y006835D01*
X005375Y006860D01*
X005375Y006910D01*
X005350Y006935D01*
X005375Y006982D02*
X005275Y007082D01*
X005250Y007082D01*
X005225Y007057D01*
X005225Y007007D01*
X005250Y006982D01*
X005250Y006935D02*
X005225Y006910D01*
X005225Y006860D01*
X005250Y006835D01*
X005375Y006982D02*
X005375Y007082D01*
X004375Y007057D02*
X004225Y007057D01*
X004300Y006982D01*
X004300Y007082D01*
X004350Y006935D02*
X004375Y006910D01*
X004375Y006860D01*
X004350Y006835D01*
X004250Y006835D01*
X004225Y006860D01*
X004225Y006910D01*
X004250Y006935D01*
X007225Y006910D02*
X007225Y006835D01*
X007375Y006835D01*
X007325Y006835D02*
X007325Y006910D01*
X007300Y006935D01*
X007250Y006935D01*
X007225Y006910D01*
X007275Y006982D02*
X007225Y007032D01*
X007375Y007032D01*
X007375Y006982D02*
X007375Y007082D01*
X007375Y006935D02*
X007325Y006885D01*
X008225Y006860D02*
X008250Y006835D01*
X008350Y006835D01*
X008375Y006860D01*
X008375Y006910D01*
X008350Y006935D01*
X008375Y006982D02*
X008375Y007082D01*
X008375Y007032D02*
X008225Y007032D01*
X008275Y006982D01*
X008250Y006935D02*
X008225Y006910D01*
X008225Y006860D01*
D15*
X007680Y007180D03*
X007180Y001180D03*
X006180Y001180D03*
X004680Y001180D03*
X008180Y001180D03*
D16*
X009680Y001430D03*
D17*
X011180Y002180D02*
X011180Y002680D01*
X011680Y002680D01*
X011680Y005680D01*
X011180Y005680D01*
X011180Y006180D01*
X013380Y006180D01*
X013380Y002180D01*
X011180Y002180D01*
X011180Y002680D02*
X011180Y005680D01*
X003680Y005680D02*
X003680Y002680D01*
X003180Y002680D01*
X003180Y005680D01*
X003680Y005680D01*
X003680Y006180D01*
X001480Y006180D01*
X001480Y002180D01*
X003680Y002180D01*
X003680Y002680D01*
M02*
