G75*
G70*
%OFA0B0*%
%FSLAX24Y24*%
%IPPOS*%
%LPD*%
%AMOC8*
5,1,8,0,0,1.08239X$1,22.5*
%
%ADD10R,0.0315X0.1417*%
%ADD11R,0.0276X0.1024*%
%ADD12R,0.0394X0.0433*%
%ADD13R,0.0433X0.0394*%
%ADD14R,0.0740X0.0740*%
%ADD15C,0.0740*%
%ADD16C,0.0394*%
%ADD17C,0.0320*%
%ADD18C,0.0436*%
%ADD19C,0.0160*%
D10*
X005284Y003176D03*
D11*
X006406Y002979D03*
X006918Y002979D03*
X007430Y002979D03*
X007942Y002979D03*
X008454Y002979D03*
X009576Y002979D03*
X009576Y005381D03*
X008454Y005381D03*
X007942Y005381D03*
X007430Y005381D03*
X006918Y005381D03*
X006406Y005381D03*
X005284Y005381D03*
D12*
X005680Y006845D03*
X004680Y006845D03*
X004680Y007515D03*
X005680Y007515D03*
X007680Y007515D03*
X008680Y007515D03*
X008680Y006845D03*
X007680Y006845D03*
X007180Y001515D03*
X006180Y001515D03*
X006180Y000845D03*
X007180Y000845D03*
X008180Y000845D03*
X008180Y001515D03*
X011680Y001515D03*
X011680Y000845D03*
X004680Y000845D03*
X004680Y001515D03*
D13*
X009345Y001430D03*
X010015Y001430D03*
D14*
X012230Y005680D03*
X002630Y002680D03*
D15*
X002730Y003680D03*
X002630Y004680D03*
X002730Y005680D03*
X012130Y004680D03*
X012230Y003680D03*
X012130Y002680D03*
D16*
X013980Y005980D03*
X000880Y005980D03*
X000880Y002480D03*
D17*
X002630Y002680D02*
X002680Y002630D01*
X002680Y002180D01*
X004015Y000845D01*
X004680Y000845D01*
X006180Y000845D01*
X007180Y000845D01*
X008180Y000845D02*
X008180Y000680D01*
X010680Y000680D01*
X011680Y000680D01*
X011680Y000845D01*
X011680Y001515D02*
X011015Y002180D01*
X010680Y002180D01*
X010015Y001515D01*
X010015Y001430D01*
X009345Y001430D02*
X008930Y001430D01*
X008680Y001680D01*
X008345Y001680D01*
X008180Y001515D01*
X008180Y002180D01*
X007942Y002418D01*
X007942Y002979D01*
X008454Y002979D02*
X008454Y002906D01*
X009180Y002180D01*
X010680Y002180D01*
X011180Y002680D02*
X012130Y002680D01*
X011180Y002680D02*
X009680Y004180D01*
X006680Y004180D01*
X006918Y003942D01*
X006918Y002979D01*
X006918Y002418D01*
X006180Y001680D01*
X006180Y001515D01*
X007180Y001515D02*
X007180Y001680D01*
X007430Y001930D01*
X007430Y002979D01*
X006406Y002979D02*
X006406Y002906D01*
X005180Y001680D01*
X004845Y001680D01*
X004680Y001515D01*
X004680Y001680D01*
X004180Y001680D01*
X004180Y002680D01*
X003180Y003680D01*
X002730Y003680D01*
X002630Y004680D02*
X002180Y004680D01*
X001680Y005180D01*
X001680Y006180D01*
X003180Y007680D01*
X004680Y007680D01*
X004680Y007515D01*
X005680Y007515D01*
X006680Y007515D01*
X006680Y007180D01*
X007180Y007180D01*
X007515Y006845D01*
X007680Y006845D01*
X007942Y005942D02*
X008680Y006680D01*
X008680Y006845D01*
X008680Y007515D02*
X007680Y007515D01*
X006180Y006680D02*
X005845Y006680D01*
X005680Y006845D01*
X006180Y006680D02*
X006918Y005942D01*
X006918Y005381D01*
X006406Y005381D02*
X006406Y005454D01*
X005680Y006180D01*
X004680Y006180D01*
X004180Y006180D01*
X004680Y006180D02*
X004680Y006845D01*
X003680Y005680D02*
X002730Y005680D01*
X003680Y005680D02*
X005180Y004180D01*
X006680Y004180D01*
X007942Y005381D02*
X007942Y005942D01*
X008454Y005454D02*
X009180Y006180D01*
X011730Y006180D01*
X012230Y005680D01*
X012230Y003680D02*
X013680Y003680D01*
X013680Y002680D01*
X012680Y001680D01*
X011680Y001680D01*
X011680Y001515D01*
X008454Y005381D02*
X008454Y005454D01*
D18*
X006680Y007180D03*
X004180Y006180D03*
X010680Y000680D03*
D19*
X001650Y000476D02*
X001417Y000380D01*
X010580Y000380D01*
X010580Y001571D01*
X010431Y001422D01*
X010689Y001680D01*
X011006Y001680D01*
X011180Y001506D01*
X011180Y000380D01*
X010180Y000380D01*
X010180Y001033D01*
X010314Y001033D01*
X010431Y001150D01*
X010431Y001422D01*
X010431Y001150D01*
X010314Y001033D01*
X009715Y001033D01*
X009680Y001068D01*
X009645Y001033D01*
X009046Y001033D01*
X009009Y001070D01*
X008858Y001070D01*
X008726Y001125D01*
X008577Y001274D01*
X008577Y001215D01*
X008511Y001149D01*
X008526Y001124D01*
X008537Y001083D01*
X008537Y000864D01*
X008198Y000864D01*
X008198Y000827D01*
X008198Y000469D01*
X008398Y000469D01*
X008439Y000480D01*
X008475Y000501D01*
X008505Y000531D01*
X008526Y000567D01*
X008537Y000608D01*
X008537Y000827D01*
X008198Y000827D01*
X008162Y000827D01*
X008162Y000469D01*
X007962Y000469D01*
X007921Y000480D01*
X007885Y000501D01*
X007855Y000531D01*
X007834Y000567D01*
X007823Y000608D01*
X007823Y000827D01*
X008162Y000827D01*
X008162Y000864D01*
X007823Y000864D01*
X007823Y001083D01*
X007834Y001124D01*
X007849Y001149D01*
X007783Y001215D01*
X007783Y001680D01*
X007689Y001680D01*
X007577Y001568D01*
X007577Y001215D01*
X007511Y001149D01*
X007526Y001124D01*
X007537Y001083D01*
X007537Y000864D01*
X007198Y000864D01*
X007198Y000827D01*
X007198Y000469D01*
X007398Y000469D01*
X007439Y000480D01*
X007475Y000501D01*
X007505Y000531D01*
X007526Y000567D01*
X007537Y000608D01*
X007537Y000827D01*
X007198Y000827D01*
X007162Y000827D01*
X007162Y000469D01*
X006962Y000469D01*
X006921Y000480D01*
X006885Y000501D01*
X006855Y000531D01*
X006834Y000567D01*
X006823Y000608D01*
X006823Y000827D01*
X007162Y000827D01*
X007162Y000864D01*
X006823Y000864D01*
X006823Y001083D01*
X006834Y001124D01*
X006849Y001149D01*
X006783Y001215D01*
X006783Y001680D01*
X006689Y001680D01*
X006577Y001568D01*
X006577Y001215D01*
X006511Y001149D01*
X006526Y001124D01*
X006537Y001083D01*
X006537Y000864D01*
X006198Y000864D01*
X006198Y000827D01*
X006198Y000469D01*
X006398Y000469D01*
X006439Y000480D01*
X006475Y000501D01*
X006505Y000531D01*
X006526Y000567D01*
X006537Y000608D01*
X006537Y000827D01*
X006198Y000827D01*
X006162Y000827D01*
X006162Y000469D01*
X005962Y000469D01*
X005921Y000480D01*
X005885Y000501D01*
X005855Y000531D01*
X005834Y000567D01*
X005823Y000608D01*
X005823Y000827D01*
X006162Y000827D01*
X006162Y000864D01*
X005823Y000864D01*
X005823Y001083D01*
X005834Y001124D01*
X005849Y001149D01*
X005783Y001215D01*
X005783Y001680D01*
X005689Y001680D01*
X005485Y001476D01*
X005384Y001375D01*
X005252Y001320D01*
X005252Y000380D01*
X005094Y000380D02*
X005094Y001320D01*
X005077Y001320D02*
X005252Y001320D01*
X005077Y001320D02*
X005077Y001215D01*
X005011Y001149D01*
X005026Y001124D01*
X005037Y001083D01*
X005037Y000864D01*
X004698Y000864D01*
X004698Y000827D01*
X004698Y000469D01*
X004898Y000469D01*
X004939Y000480D01*
X004975Y000501D01*
X005005Y000531D01*
X005026Y000567D01*
X005037Y000608D01*
X005037Y000827D01*
X004698Y000827D01*
X004662Y000827D01*
X004662Y000469D01*
X004462Y000469D01*
X004421Y000480D01*
X004385Y000501D01*
X004355Y000531D01*
X004334Y000567D01*
X004323Y000608D01*
X004323Y000827D01*
X004662Y000827D01*
X004662Y000864D01*
X004323Y000864D01*
X004323Y001083D01*
X004334Y001124D01*
X004349Y001149D01*
X004283Y001215D01*
X004283Y001320D01*
X004108Y001320D01*
X003976Y001375D01*
X003875Y001476D01*
X003820Y001608D01*
X003820Y002531D01*
X003103Y003247D01*
X003057Y003200D01*
X003062Y003199D01*
X003098Y003178D01*
X003128Y003148D01*
X003149Y003112D01*
X003160Y003071D01*
X003160Y002700D01*
X002650Y002700D01*
X002650Y002660D01*
X003160Y002660D01*
X003160Y002289D01*
X003149Y002248D01*
X003128Y002212D01*
X003098Y002182D01*
X003062Y002161D01*
X003021Y002150D01*
X002650Y002150D01*
X002650Y002660D01*
X002610Y002660D01*
X002610Y002150D01*
X002239Y002150D01*
X002198Y002161D01*
X002162Y002182D01*
X002132Y002212D01*
X002111Y002248D01*
X002100Y002289D01*
X002100Y002660D01*
X002610Y002660D01*
X002610Y002700D01*
X002100Y002700D01*
X002100Y003071D01*
X002111Y003112D01*
X002132Y003148D01*
X002162Y003178D01*
X002198Y003199D01*
X002239Y003210D01*
X002394Y003210D01*
X002247Y003357D01*
X002160Y003567D01*
X002160Y003793D01*
X002247Y004003D01*
X002402Y004158D01*
X002307Y004197D01*
X002184Y004320D01*
X002108Y004320D01*
X001976Y004375D01*
X001476Y004875D01*
X001375Y004976D01*
X001320Y005108D01*
X001320Y006252D01*
X001364Y006358D01*
X001345Y006350D01*
X001024Y006350D01*
X001105Y006316D01*
X001216Y006205D01*
X001277Y006059D01*
X001277Y005901D01*
X001216Y005755D01*
X001105Y005644D01*
X000959Y005583D01*
X000801Y005583D01*
X000655Y005644D01*
X000544Y005755D01*
X000483Y005901D01*
X000483Y006059D01*
X000544Y006205D01*
X000655Y006316D01*
X000801Y006377D01*
X000950Y006377D01*
X000710Y006476D01*
X000476Y006710D01*
X000380Y006943D01*
X000380Y001417D01*
X000476Y001650D01*
X000710Y001884D01*
X001015Y002010D01*
X001345Y002010D01*
X001650Y001884D01*
X001884Y001650D01*
X002010Y001345D01*
X002010Y001015D01*
X001884Y000710D01*
X001650Y000476D01*
X001671Y000497D02*
X004391Y000497D01*
X004460Y000470D02*
X004460Y000380D01*
X004618Y000380D02*
X004618Y000469D01*
X004662Y000497D02*
X004698Y000497D01*
X004777Y000469D02*
X004777Y000380D01*
X004935Y000380D02*
X004935Y000479D01*
X004969Y000497D02*
X005891Y000497D01*
X005886Y000500D02*
X005886Y000380D01*
X005728Y000380D02*
X005728Y001680D01*
X005783Y001607D02*
X005616Y001607D01*
X005569Y001560D02*
X005569Y000380D01*
X005411Y000380D02*
X005411Y001401D01*
X005457Y001448D02*
X005783Y001448D01*
X005783Y001290D02*
X005077Y001290D01*
X005022Y001131D02*
X005838Y001131D01*
X005823Y000973D02*
X005037Y000973D01*
X004935Y000864D02*
X004935Y000827D01*
X005037Y000814D02*
X005823Y000814D01*
X005886Y000827D02*
X005886Y000864D01*
X006045Y000864D02*
X006045Y000827D01*
X006162Y000814D02*
X006198Y000814D01*
X006203Y000827D02*
X006203Y000864D01*
X006362Y000864D02*
X006362Y000827D01*
X006520Y000827D02*
X006520Y000864D01*
X006537Y000814D02*
X006823Y000814D01*
X006837Y000827D02*
X006837Y000864D01*
X006823Y000973D02*
X006537Y000973D01*
X006522Y001131D02*
X006838Y001131D01*
X006837Y001129D02*
X006837Y001161D01*
X006783Y001290D02*
X006577Y001290D01*
X006520Y001158D02*
X006520Y001134D01*
X006577Y001448D02*
X006783Y001448D01*
X006783Y001607D02*
X006616Y001607D01*
X006679Y001669D02*
X006679Y000380D01*
X006520Y000380D02*
X006520Y000557D01*
X006469Y000497D02*
X006891Y000497D01*
X006837Y000562D02*
X006837Y000380D01*
X006996Y000380D02*
X006996Y000469D01*
X007154Y000469D02*
X007154Y000380D01*
X007162Y000497D02*
X007198Y000497D01*
X007313Y000469D02*
X007313Y000380D01*
X007471Y000380D02*
X007471Y000498D01*
X007469Y000497D02*
X007891Y000497D01*
X007947Y000473D02*
X007947Y000380D01*
X008105Y000380D02*
X008105Y000469D01*
X008162Y000497D02*
X008198Y000497D01*
X008264Y000469D02*
X008264Y000380D01*
X008422Y000380D02*
X008422Y000475D01*
X008469Y000497D02*
X010580Y000497D01*
X010641Y000380D02*
X010641Y001632D01*
X010616Y001607D02*
X011079Y001607D01*
X010758Y001607D01*
X010800Y001680D02*
X010800Y000380D01*
X010800Y001790D01*
X010774Y001765D02*
X010921Y001765D01*
X010958Y001728D02*
X010958Y000380D01*
X010958Y001680D01*
X010866Y001820D02*
X010829Y001820D01*
X010756Y001747D01*
X010777Y000380D01*
X013443Y000380D01*
X013210Y000476D01*
X012976Y000710D01*
X012850Y001015D01*
X012850Y001345D01*
X012858Y001364D01*
X012752Y001320D01*
X012077Y001320D01*
X012077Y001215D01*
X012011Y001149D01*
X012026Y001124D01*
X012037Y001083D01*
X012037Y000864D01*
X011698Y000864D01*
X011698Y000827D01*
X011698Y000469D01*
X011898Y000469D01*
X011939Y000480D01*
X011975Y000501D01*
X012005Y000531D01*
X012026Y000567D01*
X012037Y000608D01*
X012037Y000827D01*
X011698Y000827D01*
X011662Y000827D01*
X011662Y000469D01*
X011462Y000469D01*
X011421Y000480D01*
X011385Y000501D01*
X011355Y000531D01*
X011334Y000567D01*
X011323Y000608D01*
X011323Y000827D01*
X011662Y000827D01*
X011662Y000864D01*
X011323Y000864D01*
X011323Y001083D01*
X011334Y001124D01*
X011349Y001149D01*
X011283Y001215D01*
X011283Y001402D01*
X010866Y001820D01*
X011117Y001569D02*
X011117Y000380D01*
X011117Y001569D01*
X011180Y001448D02*
X010457Y001448D01*
X010580Y001448D01*
X010483Y001473D02*
X010483Y000380D01*
X010483Y001473D01*
X010431Y001290D02*
X011180Y001290D01*
X011283Y001290D02*
X010763Y001290D01*
X010580Y001290D02*
X010431Y001290D01*
X010412Y001131D02*
X011180Y001131D01*
X011338Y001131D02*
X010765Y001131D01*
X010580Y001131D02*
X010412Y001131D01*
X010324Y001043D02*
X010324Y000380D01*
X010324Y001043D01*
X010166Y001033D02*
X010166Y000380D01*
X010180Y000497D02*
X011180Y000497D01*
X011275Y000380D02*
X011275Y001411D01*
X011238Y001448D02*
X010760Y001448D01*
X010007Y001033D02*
X010007Y000380D01*
X009849Y000380D02*
X009849Y001033D01*
X009690Y001058D02*
X009690Y000380D01*
X009532Y000380D02*
X009532Y001033D01*
X009373Y001033D02*
X009373Y000380D01*
X009215Y000380D02*
X009215Y001033D01*
X009056Y001033D02*
X009056Y000380D01*
X008898Y000380D02*
X008898Y001070D01*
X008739Y001119D02*
X008739Y000380D01*
X008581Y000380D02*
X008581Y001270D01*
X008522Y001131D02*
X008720Y001131D01*
X008537Y000973D02*
X010580Y000973D01*
X010768Y000973D02*
X011323Y000973D01*
X011180Y000973D02*
X010180Y000973D01*
X010180Y000814D02*
X011180Y000814D01*
X011323Y000814D02*
X010770Y000814D01*
X010580Y000814D02*
X008537Y000814D01*
X008422Y000827D02*
X008422Y000864D01*
X008264Y000864D02*
X008264Y000827D01*
X008198Y000814D02*
X008162Y000814D01*
X008105Y000827D02*
X008105Y000864D01*
X007947Y000864D02*
X007947Y000827D01*
X007823Y000814D02*
X007537Y000814D01*
X007471Y000827D02*
X007471Y000864D01*
X007537Y000973D02*
X007823Y000973D01*
X007838Y001131D02*
X007522Y001131D01*
X007577Y001290D02*
X007783Y001290D01*
X007788Y001210D02*
X007788Y000380D01*
X007630Y000380D02*
X007630Y001620D01*
X007616Y001607D02*
X007783Y001607D01*
X007783Y001448D02*
X007577Y001448D01*
X007313Y000864D02*
X007313Y000827D01*
X007198Y000814D02*
X007162Y000814D01*
X007154Y000827D02*
X007154Y000864D01*
X006996Y000864D02*
X006996Y000827D01*
X007162Y000656D02*
X007198Y000656D01*
X007537Y000656D02*
X007823Y000656D01*
X008162Y000656D02*
X008198Y000656D01*
X008537Y000656D02*
X010580Y000656D01*
X010773Y000656D02*
X011323Y000656D01*
X011180Y000656D02*
X010180Y000656D01*
X010775Y000497D02*
X011391Y000497D01*
X011434Y000476D02*
X011434Y000380D01*
X011592Y000380D02*
X011592Y000469D01*
X011662Y000497D02*
X011698Y000497D01*
X011751Y000469D02*
X011751Y000380D01*
X011909Y000380D02*
X011909Y000472D01*
X011969Y000497D02*
X013189Y000497D01*
X013177Y000509D02*
X013177Y000380D01*
X013019Y000380D02*
X013019Y000668D01*
X013031Y000656D02*
X012037Y000656D01*
X012037Y000814D02*
X012933Y000814D01*
X012868Y000973D02*
X012037Y000973D01*
X011909Y000864D02*
X011909Y000827D01*
X011751Y000827D02*
X011751Y000864D01*
X011698Y000814D02*
X011662Y000814D01*
X011592Y000827D02*
X011592Y000864D01*
X011434Y000864D02*
X011434Y000827D01*
X011662Y000656D02*
X011698Y000656D01*
X012068Y000380D02*
X012068Y001206D01*
X012077Y001290D02*
X012850Y001290D01*
X012702Y001320D02*
X012702Y000380D01*
X012860Y000380D02*
X012860Y000991D01*
X012850Y001131D02*
X012022Y001131D01*
X012226Y001320D02*
X012226Y000380D01*
X012385Y000380D02*
X012385Y001320D01*
X012543Y001320D02*
X012543Y000380D01*
X013336Y000380D02*
X013336Y000424D01*
X014472Y001436D02*
X014384Y001650D01*
X014150Y001884D01*
X013845Y002010D01*
X013519Y002010D01*
X013884Y002375D01*
X013985Y002476D01*
X014040Y002608D01*
X014040Y003752D01*
X013985Y003884D01*
X013884Y003985D01*
X013752Y004040D01*
X012676Y004040D01*
X012553Y004163D01*
X012458Y004202D01*
X012613Y004357D01*
X012700Y004567D01*
X012700Y004793D01*
X012613Y005003D01*
X012466Y005150D01*
X012621Y005150D01*
X012662Y005161D01*
X012698Y005182D01*
X012728Y005212D01*
X012749Y005248D01*
X012760Y005289D01*
X012760Y005660D01*
X012250Y005660D01*
X012250Y005700D01*
X012210Y005700D01*
X012210Y006210D01*
X011839Y006210D01*
X011798Y006199D01*
X011762Y006178D01*
X011732Y006148D01*
X011711Y006112D01*
X011700Y006071D01*
X011700Y005700D01*
X012210Y005700D01*
X012210Y005660D01*
X011700Y005660D01*
X011700Y005289D01*
X011711Y005248D01*
X011732Y005212D01*
X011762Y005182D01*
X011798Y005161D01*
X011803Y005160D01*
X011647Y005003D01*
X011560Y004793D01*
X011560Y004567D01*
X011647Y004357D01*
X011807Y004197D01*
X011902Y004158D01*
X011747Y004003D01*
X011660Y003793D01*
X011660Y003567D01*
X011747Y003357D01*
X011902Y003202D01*
X011807Y003163D01*
X011684Y003040D01*
X011329Y003040D01*
X010727Y003642D01*
X010680Y006680D01*
X009077Y006680D01*
X009077Y007145D01*
X009042Y007180D01*
X009077Y007215D01*
X009077Y007814D01*
X009041Y007850D01*
X013176Y007850D01*
X012976Y007650D01*
X012850Y007345D01*
X012850Y007015D01*
X012976Y006710D01*
X013210Y006476D01*
X013515Y006350D01*
X013836Y006350D01*
X013755Y006316D01*
X013644Y006205D01*
X013583Y006059D01*
X013583Y005901D01*
X013644Y005755D01*
X013755Y005644D01*
X013901Y005583D01*
X014059Y005583D01*
X014205Y005644D01*
X014316Y005755D01*
X014377Y005901D01*
X014377Y006059D01*
X014316Y006205D01*
X014205Y006316D01*
X014059Y006377D01*
X013910Y006377D01*
X014150Y006476D01*
X014384Y006710D01*
X014472Y006924D01*
X014472Y001436D01*
X014472Y001448D02*
X014467Y001448D01*
X014445Y001502D02*
X014445Y006858D01*
X014436Y006837D02*
X014472Y006837D01*
X014472Y006679D02*
X014352Y006679D01*
X014287Y006613D02*
X014287Y006235D01*
X014317Y006203D02*
X014472Y006203D01*
X014472Y006045D02*
X014377Y006045D01*
X014371Y005886D02*
X014472Y005886D01*
X014472Y005728D02*
X014289Y005728D01*
X014287Y005725D02*
X014287Y001747D01*
X014269Y001765D02*
X014472Y001765D01*
X014472Y001607D02*
X014402Y001607D01*
X014128Y001893D02*
X014128Y005612D01*
X013970Y005583D02*
X013970Y003900D01*
X014009Y003826D02*
X014472Y003826D01*
X014472Y003984D02*
X013885Y003984D01*
X013811Y004015D02*
X013811Y005620D01*
X013671Y005728D02*
X012760Y005728D01*
X012760Y005700D02*
X012760Y006071D01*
X012749Y006112D01*
X012728Y006148D01*
X012698Y006178D01*
X012662Y006199D01*
X012621Y006210D01*
X012250Y006210D01*
X012250Y005700D01*
X012760Y005700D01*
X012702Y005700D02*
X012702Y005660D01*
X012760Y005569D02*
X014472Y005569D01*
X014472Y005411D02*
X012760Y005411D01*
X012750Y005252D02*
X014472Y005252D01*
X014472Y005094D02*
X012523Y005094D01*
X012543Y005073D02*
X012543Y005150D01*
X012702Y005185D02*
X012702Y004040D01*
X012860Y004040D02*
X012860Y006991D01*
X012858Y006996D02*
X009077Y006996D01*
X009068Y007154D02*
X012850Y007154D01*
X012850Y007313D02*
X009077Y007313D01*
X009056Y007194D02*
X009056Y007166D01*
X009077Y007471D02*
X012902Y007471D01*
X012860Y007369D02*
X012860Y007850D01*
X012702Y007850D02*
X012702Y006175D01*
X012647Y006203D02*
X013643Y006203D01*
X013653Y006214D02*
X013653Y006350D01*
X013811Y006340D02*
X013811Y006350D01*
X013970Y006377D02*
X013970Y006402D01*
X014096Y006362D02*
X014472Y006362D01*
X014472Y006520D02*
X014194Y006520D01*
X014128Y006467D02*
X014128Y006348D01*
X013583Y006045D02*
X012760Y006045D01*
X012760Y005886D02*
X013589Y005886D01*
X013653Y005746D02*
X013653Y004040D01*
X013494Y004040D02*
X013494Y006359D01*
X013487Y006362D02*
X010685Y006362D01*
X010682Y006520D02*
X013166Y006520D01*
X013177Y006509D02*
X013177Y004040D01*
X013019Y004040D02*
X013019Y006668D01*
X013008Y006679D02*
X010680Y006679D01*
X010641Y006680D02*
X010641Y007850D01*
X010483Y007850D02*
X010483Y006680D01*
X010324Y006680D02*
X010324Y007850D01*
X010166Y007850D02*
X010166Y006680D01*
X010007Y006680D02*
X010007Y007850D01*
X009849Y007850D02*
X009849Y006680D01*
X009690Y006680D02*
X009690Y007850D01*
X009532Y007850D02*
X009532Y006680D01*
X009373Y006680D02*
X009373Y007850D01*
X009215Y007850D02*
X009215Y006680D01*
X009077Y006837D02*
X012924Y006837D01*
X013336Y006424D02*
X013336Y004040D01*
X012574Y004143D02*
X014472Y004143D01*
X014472Y004301D02*
X012557Y004301D01*
X012543Y004287D02*
X012543Y004167D01*
X012656Y004460D02*
X014472Y004460D01*
X014472Y004618D02*
X012700Y004618D01*
X012700Y004777D02*
X014472Y004777D01*
X014472Y004935D02*
X012641Y004935D01*
X011751Y005107D02*
X011751Y005193D01*
X011710Y005252D02*
X010702Y005252D01*
X010704Y005094D02*
X011737Y005094D01*
X011619Y004935D02*
X010707Y004935D01*
X010709Y004777D02*
X011560Y004777D01*
X011592Y004871D02*
X011592Y007850D01*
X011751Y007850D02*
X011751Y006167D01*
X011813Y006203D02*
X010687Y006203D01*
X010690Y006045D02*
X011700Y006045D01*
X011700Y005886D02*
X010692Y005886D01*
X010695Y005728D02*
X011700Y005728D01*
X011751Y005700D02*
X011751Y005660D01*
X011700Y005569D02*
X010697Y005569D01*
X010700Y005411D02*
X011700Y005411D01*
X011909Y005660D02*
X011909Y005700D01*
X012068Y005700D02*
X012068Y005660D01*
X012210Y005728D02*
X012250Y005728D01*
X012226Y005700D02*
X012226Y007850D01*
X012068Y007850D02*
X012068Y006210D01*
X012210Y006203D02*
X012250Y006203D01*
X012385Y006210D02*
X012385Y007850D01*
X012543Y007850D02*
X012543Y006210D01*
X012250Y006045D02*
X012210Y006045D01*
X012210Y005886D02*
X012250Y005886D01*
X012385Y005700D02*
X012385Y005660D01*
X012543Y005660D02*
X012543Y005700D01*
X011909Y006210D02*
X011909Y007850D01*
X011434Y007850D02*
X011434Y003040D01*
X011275Y003094D02*
X011275Y007850D01*
X011117Y007850D02*
X011117Y003253D01*
X011178Y003192D02*
X011875Y003192D01*
X011751Y003107D02*
X011751Y003353D01*
X011754Y003350D02*
X011019Y003350D01*
X010958Y003411D02*
X010958Y007850D01*
X010800Y007850D02*
X010800Y003570D01*
X010861Y003509D02*
X011684Y003509D01*
X011660Y003667D02*
X010726Y003667D01*
X010724Y003826D02*
X011673Y003826D01*
X011739Y003984D02*
X010721Y003984D01*
X010719Y004143D02*
X011886Y004143D01*
X011751Y004253D02*
X011751Y004007D01*
X011703Y004301D02*
X010717Y004301D01*
X010714Y004460D02*
X011604Y004460D01*
X011592Y004489D02*
X011592Y003040D01*
X013591Y002082D02*
X014472Y002082D01*
X014472Y001924D02*
X014054Y001924D01*
X013970Y001958D02*
X013970Y002460D01*
X013908Y002399D02*
X014472Y002399D01*
X014472Y002241D02*
X013750Y002241D01*
X013811Y002302D02*
X013811Y002010D01*
X013653Y002010D02*
X013653Y002143D01*
X014019Y002558D02*
X014472Y002558D01*
X014472Y002716D02*
X014040Y002716D01*
X014040Y002875D02*
X014472Y002875D01*
X014472Y003033D02*
X014040Y003033D01*
X014040Y003192D02*
X014472Y003192D01*
X014472Y003350D02*
X014040Y003350D01*
X014040Y003509D02*
X014472Y003509D01*
X014472Y003667D02*
X014040Y003667D01*
X011560Y004618D02*
X010712Y004618D01*
X009077Y007630D02*
X012968Y007630D01*
X013019Y007692D02*
X013019Y007850D01*
X013114Y007788D02*
X009077Y007788D01*
X009056Y007835D02*
X009056Y007850D01*
X005293Y007155D02*
X005283Y007145D01*
X005283Y006680D01*
X005037Y006680D01*
X005037Y006827D01*
X004698Y006827D01*
X004698Y006864D01*
X005037Y006864D01*
X005037Y007083D01*
X005026Y007124D01*
X005011Y007149D01*
X005016Y007155D01*
X005293Y007155D01*
X005292Y007154D02*
X005016Y007154D01*
X005094Y007155D02*
X005094Y006680D01*
X005252Y006680D02*
X005252Y007155D01*
X005283Y006996D02*
X005037Y006996D01*
X004935Y006864D02*
X004935Y006827D01*
X004777Y006827D02*
X004777Y006864D01*
X004698Y006837D02*
X005283Y006837D01*
X004662Y006837D02*
X002846Y006837D01*
X002875Y006865D02*
X002875Y006237D01*
X002843Y006250D02*
X002617Y006250D01*
X002407Y006163D01*
X002247Y006003D01*
X002160Y005793D01*
X002160Y005567D01*
X002247Y005357D01*
X002402Y005202D01*
X002307Y005163D01*
X002257Y005113D01*
X002040Y005329D01*
X002040Y006031D01*
X003329Y007320D01*
X004283Y007320D01*
X004283Y007215D01*
X004349Y007149D01*
X004334Y007124D01*
X004323Y007083D01*
X004323Y006864D01*
X004662Y006864D01*
X004662Y006827D01*
X004323Y006827D01*
X004323Y006680D01*
X004180Y006680D01*
X004180Y005689D01*
X003985Y005884D01*
X003884Y005985D01*
X003752Y006040D01*
X003176Y006040D01*
X003053Y006163D01*
X002843Y006250D01*
X002957Y006203D02*
X004180Y006203D01*
X004180Y006045D02*
X003172Y006045D01*
X003192Y006040D02*
X003192Y007182D01*
X003163Y007154D02*
X004344Y007154D01*
X004301Y007197D02*
X004301Y006680D01*
X004180Y006679D02*
X002688Y006679D01*
X002716Y006707D02*
X002716Y006250D01*
X002558Y006226D02*
X002558Y006548D01*
X002529Y006520D02*
X004180Y006520D01*
X004180Y006362D02*
X002371Y006362D01*
X002399Y006390D02*
X002399Y006155D01*
X002503Y006203D02*
X002212Y006203D01*
X002241Y006231D02*
X002241Y005988D01*
X002288Y006045D02*
X002054Y006045D01*
X002082Y006073D02*
X002082Y005287D01*
X002117Y005252D02*
X002352Y005252D01*
X002399Y005205D02*
X002399Y005201D01*
X002241Y005129D02*
X002241Y005372D01*
X002225Y005411D02*
X002040Y005411D01*
X002040Y005569D02*
X002160Y005569D01*
X002160Y005728D02*
X002040Y005728D01*
X002040Y005886D02*
X002198Y005886D01*
X001320Y005886D02*
X001271Y005886D01*
X001277Y006045D02*
X001320Y006045D01*
X001320Y006203D02*
X001217Y006203D01*
X001131Y006290D02*
X001131Y006350D01*
X001290Y006350D02*
X001290Y002010D01*
X001131Y002010D02*
X001131Y002170D01*
X001105Y002144D02*
X001216Y002255D01*
X001277Y002401D01*
X001277Y002559D01*
X001216Y002705D01*
X001105Y002816D01*
X000959Y002877D01*
X000801Y002877D01*
X000655Y002816D01*
X000544Y002705D01*
X000483Y002559D01*
X000483Y002401D01*
X000544Y002255D01*
X000655Y002144D01*
X000801Y002083D01*
X000959Y002083D01*
X001105Y002144D01*
X001202Y002241D02*
X002115Y002241D01*
X002241Y002150D02*
X002241Y000380D01*
X002399Y000380D02*
X002399Y002150D01*
X002558Y002150D02*
X002558Y000380D01*
X002716Y000380D02*
X002716Y002150D01*
X002650Y002241D02*
X002610Y002241D01*
X002610Y002399D02*
X002650Y002399D01*
X002650Y002558D02*
X002610Y002558D01*
X002558Y002660D02*
X002558Y002700D01*
X002716Y002700D02*
X002716Y002660D01*
X002875Y002660D02*
X002875Y002700D01*
X003033Y002700D02*
X003033Y002660D01*
X003160Y002716D02*
X003635Y002716D01*
X003667Y002684D02*
X003667Y000380D01*
X003509Y000380D02*
X003509Y002842D01*
X003476Y002875D02*
X003160Y002875D01*
X003350Y003001D02*
X003350Y000380D01*
X003192Y000380D02*
X003192Y003159D01*
X003159Y003192D02*
X003075Y003192D01*
X003160Y003033D02*
X003318Y003033D01*
X003160Y002558D02*
X003793Y002558D01*
X003820Y002399D02*
X003160Y002399D01*
X003145Y002241D02*
X003820Y002241D01*
X003820Y002082D02*
X000380Y002082D01*
X000380Y001924D02*
X000806Y001924D01*
X000814Y001927D02*
X000814Y002083D01*
X000973Y002089D02*
X000973Y001992D01*
X000656Y002143D02*
X000656Y001829D01*
X000591Y001765D02*
X000380Y001765D01*
X000497Y001671D02*
X000497Y002368D01*
X000484Y002399D02*
X000380Y002399D01*
X000380Y002241D02*
X000558Y002241D01*
X000483Y002558D02*
X000380Y002558D01*
X000497Y002592D02*
X000497Y005868D01*
X000489Y005886D02*
X000380Y005886D01*
X000380Y005728D02*
X000571Y005728D01*
X000656Y005643D02*
X000656Y002817D01*
X000555Y002716D02*
X000380Y002716D01*
X000380Y002875D02*
X000795Y002875D01*
X000814Y002877D02*
X000814Y005583D01*
X000973Y005589D02*
X000973Y002871D01*
X000965Y002875D02*
X002100Y002875D01*
X002100Y003033D02*
X000380Y003033D01*
X000380Y003192D02*
X002185Y003192D01*
X002241Y003210D02*
X002241Y003372D01*
X002254Y003350D02*
X000380Y003350D01*
X000380Y003509D02*
X002184Y003509D01*
X002160Y003667D02*
X000380Y003667D01*
X000380Y003826D02*
X002173Y003826D01*
X002239Y003984D02*
X000380Y003984D01*
X000380Y004143D02*
X002386Y004143D01*
X002399Y004155D02*
X002399Y004159D01*
X002241Y004263D02*
X002241Y003988D01*
X002203Y004301D02*
X000380Y004301D01*
X000380Y004460D02*
X001891Y004460D01*
X001924Y004427D02*
X001924Y001554D01*
X001902Y001607D02*
X003821Y001607D01*
X003826Y001595D02*
X003826Y000380D01*
X003984Y000380D02*
X003984Y001372D01*
X003903Y001448D02*
X001967Y001448D01*
X002010Y001290D02*
X004283Y001290D01*
X004301Y001197D02*
X004301Y000380D01*
X004143Y000380D02*
X004143Y001320D01*
X004338Y001131D02*
X002010Y001131D01*
X001992Y000973D02*
X004323Y000973D01*
X004460Y000864D02*
X004460Y000827D01*
X004323Y000814D02*
X001927Y000814D01*
X001924Y000806D02*
X001924Y000380D01*
X001765Y000380D02*
X001765Y000591D01*
X001829Y000656D02*
X004323Y000656D01*
X004662Y000656D02*
X004698Y000656D01*
X004698Y000814D02*
X004662Y000814D01*
X004618Y000827D02*
X004618Y000864D01*
X004777Y000864D02*
X004777Y000827D01*
X005037Y000656D02*
X005823Y000656D01*
X006045Y000469D02*
X006045Y000380D01*
X006203Y000380D02*
X006203Y000469D01*
X006198Y000497D02*
X006162Y000497D01*
X006362Y000469D02*
X006362Y000380D01*
X006198Y000656D02*
X006162Y000656D01*
X006537Y000656D02*
X006823Y000656D01*
X003820Y001765D02*
X001769Y001765D01*
X001765Y001769D02*
X001765Y004586D01*
X001733Y004618D02*
X000380Y004618D01*
X000380Y004777D02*
X001574Y004777D01*
X001607Y004744D02*
X001607Y001902D01*
X001554Y001924D02*
X003820Y001924D01*
X003033Y002153D02*
X003033Y000380D01*
X002875Y000380D02*
X002875Y002150D01*
X002100Y002399D02*
X001276Y002399D01*
X001277Y002558D02*
X002100Y002558D01*
X002241Y002660D02*
X002241Y002700D01*
X002100Y002716D02*
X001205Y002716D01*
X001131Y002790D02*
X001131Y005670D01*
X001189Y005728D02*
X001320Y005728D01*
X001320Y005569D02*
X000380Y005569D01*
X000380Y005411D02*
X001320Y005411D01*
X001320Y005252D02*
X000380Y005252D01*
X000380Y005094D02*
X001326Y005094D01*
X001416Y004935D02*
X000380Y004935D01*
X001448Y004903D02*
X001448Y001967D01*
X000458Y001607D02*
X000380Y001607D01*
X000380Y001448D02*
X000393Y001448D01*
X001607Y000458D02*
X001607Y000380D01*
X001448Y000380D02*
X001448Y000393D01*
X002082Y000380D02*
X002082Y004331D01*
X004142Y005728D02*
X004180Y005728D01*
X004143Y005727D02*
X004143Y007320D01*
X004283Y007313D02*
X003322Y007313D01*
X003350Y007320D02*
X003350Y006040D01*
X003509Y006040D02*
X003509Y007320D01*
X003667Y007320D02*
X003667Y006040D01*
X003826Y006009D02*
X003826Y007320D01*
X003984Y007320D02*
X003984Y005885D01*
X003983Y005886D02*
X004180Y005886D01*
X003033Y006171D02*
X003033Y007024D01*
X003005Y006996D02*
X004323Y006996D01*
X004460Y006864D02*
X004460Y006827D01*
X004618Y006827D02*
X004618Y006864D01*
X000814Y006433D02*
X000814Y006377D01*
X000764Y006362D02*
X000380Y006362D01*
X000380Y006520D02*
X000666Y006520D01*
X000656Y006531D02*
X000656Y006317D01*
X000543Y006203D02*
X000380Y006203D01*
X000380Y006045D02*
X000483Y006045D01*
X000497Y006092D02*
X000497Y006689D01*
X000508Y006679D02*
X000380Y006679D01*
X000380Y006837D02*
X000424Y006837D01*
X002399Y002700D02*
X002399Y002660D01*
M02*
